<svg id="DEVICES" xmlns="http://www.w3.org/2000/svg" width="256" height="129.92" viewBox="0 0 800 406">
  <metadata><?xpacket begin="﻿" id="W5M0MpCehiHzreSzNTczkc9d"?>
<x:xmpmeta xmlns:x="adobe:ns:meta/" x:xmptk="Adobe XMP Core 5.6-c138 79.159824, 2016/09/14-01:09:01        ">
   <rdf:RDF xmlns:rdf="http://www.w3.org/1999/02/22-rdf-syntax-ns#">
      <rdf:Description rdf:about=""/>
   </rdf:RDF>
</x:xmpmeta>
                                                                                                    
                                                                                                    
                                                                                                    
                                                                                                    
                                                                                                    
                                                                                                    
                                                                                                    
                                                                                                    
                                                                                                    
                                                                                                    
                                                                                                    
                                                                                                    
                                                                                                    
                                                                                                    
                                                                                                    
                                                                                                    
                                                                                                    
                                                                                                    
                                                                                                    
                                                                                                    
                           
<?xpacket end="w"?></metadata>
<defs>
    <style>
      .cls-1 {
        fill: #0d004c;
      }

      .cls-1, .cls-11, .cls-14, .cls-15, .cls-16, .cls-21, .cls-22, .cls-25 {
        fill-rule: evenodd;
      }

      .cls-2, .cls-21 {
        fill: #2196f3;
      }

      .cls-3 {
        fill: #f44336;
      }

      .cls-4 {
        fill: #111;
      }

      .cls-22, .cls-5 {
        fill: #e0e0e0;
      }

      .cls-6 {
        fill: #daeeff;
      }

      .cls-7 {
        fill: #0178d9;
      }

      .cls-8 {
        fill: #bdbdbd;
      }

      .cls-9 {
        fill: #54316a;
      }

      .cls-10, .cls-25 {
        fill: #fff;
      }

      .cls-11 {
        fill: #03a9f4;
      }

      .cls-12 {
        fill: #f2c311;
      }

      .cls-13 {
        fill: #214788;
      }

      .cls-14 {
        fill: #9eb235;
      }

      .cls-15 {
        fill: #0277bd;
      }

      .cls-16 {
        fill: #5b3473;
      }

      .cls-17 {
        fill: #161616;
      }

      .cls-18 {
        fill: #636363;
      }

      .cls-19, .cls-26 {
        fill: #f5f5f5;
      }

      .cls-20 {
        fill: #693d84;
      }

      .cls-23 {
        fill: #ebebeb;
        opacity: 0.16;
      }

      .cls-24 {
        fill: #8850aa;
      }

      .cls-26 {
        font-size: 30px;
        font-family: Helvetica;
        font-weight: 300;
      }
    </style>
  </defs>
  <g id="TV">
    <path id="Rounded_Rectangle_1" data-name="Rounded Rectangle 1" class="cls-1" d="M585,240H484v10a4,4,0,0,1-4,4H313a4,4,0,0,1-4-4V240H209a10,10,0,0,1-10-10V10A10,10,0,0,1,209,0H585a10,10,0,0,1,10,10V230A10,10,0,0,1,585,240Z"/>
    <rect class="cls-2" x="207" y="8" width="380" height="224"/>
    <rect class="cls-3" x="574" y="235" width="4" height="2"/>
  </g>
  <g id="LAPTOP">
    <path id="Rounded_Rectangle_5" data-name="Rounded Rectangle 5" class="cls-4" d="M67,175H251a8,8,0,0,1,8,8V295a0,0,0,0,1,0,0H59a0,0,0,0,1,0,0V183A8,8,0,0,1,67,175Z"/>
    <path id="Rounded_Rectangle_6" data-name="Rounded Rectangle 6" class="cls-5" d="M43,295H275a0,0,0,0,1,0,0v2a8,8,0,0,1-8,8H51a8,8,0,0,1-8-8v-2A0,0,0,0,1,43,295Z"/>
    <circle class="cls-6" cx="159" cy="179" r="2"/>
    <rect class="cls-7" x="66" y="183" width="186" height="108"/>
    <path id="Rounded_Rectangle_7" data-name="Rounded Rectangle 7" class="cls-8" d="M136,295h45a0,0,0,0,1,0,0v4a2,2,0,0,1-2,2H138a2,2,0,0,1-2-2v-4A0,0,0,0,1,136,295Z"/>
    <g id="SCREEN">
      <rect class="cls-9" x="84" y="207" width="148" height="75"/>
      <rect class="cls-10" x="84" y="192" width="148" height="15"/>
      <path id="num" class="cls-11" d="M105,227h16v16H105V227Zm-18,0h16v16H87V227Zm0,18h16v16H87V245Zm0,18h16v16H87V263Zm18-18h16v16H105V245Zm0,18h16v16H105V263Zm18,0h16v16H123V263Zm0-18h16v16H123V245Zm0-18h16v16H123V227Z"/>
      <rect id="pwr" class="cls-3" x="87" y="209" width="16" height="16"/>
      <rect id="mute" class="cls-12" x="105" y="209" width="16" height="16"/>
      <rect id="src" class="cls-13" x="123" y="209" width="16" height="16"/>
      <path id="ch" class="cls-14" d="M141,209h16v16H141V209Zm0,18h16v16H141V227Z"/>
      <path id="vol" class="cls-15" d="M159,209h16v16H159V209Zm0,18h16v16H159V227Z"/>
      <path id="blank" class="cls-16" d="M141,245h16v16H141V245Zm0,18h16v16H141V263Zm18,0h16v16H159V263Zm0-18h16v16H159V245Zm18,0h16v16H177V245Zm0,18h16v16H177V263Zm0-36h16v16H177V227Zm0-18h16v16H177V209Zm18,0h16v16H195V209Zm18,0h16v16H213V209Zm-18,18h16v16H195V227Zm18,0h16v16H213V227Zm-18,18h16v16H195V245Zm18,0h16v16H213V245Zm-18,18h16v16H195V263Zm18,0h16v16H213V263Z"/>
    </g>
  </g>
  <g id="PHONE">
    <rect id="Rounded_Rectangle_8" data-name="Rounded Rectangle 8" x="506" y="278" width="72" height="128" rx="4" ry="4"/>
    <rect id="Rounded_Rectangle_9" data-name="Rounded Rectangle 9" class="cls-17" x="526" y="397" width="32" height="6" rx="2" ry="2"/>
    <rect id="Rounded_Rectangle_10" data-name="Rounded Rectangle 10" class="cls-18" x="534" y="281" width="16" height="2"/>
    <rect class="cls-19" x="510" y="286" width="64" height="108"/>
    <rect id="_1" data-name="1" class="cls-20" x="510" y="286" width="64" height="50"/>
    <path class="cls-21" d="M559.5,340h7a3.5,3.5,0,0,1,0,7h-7A3.5,3.5,0,0,1,559.5,340Zm0,11h7a3.5,3.5,0,0,1,0,7h-7A3.5,3.5,0,0,1,559.5,351Zm0,11h7a3.5,3.5,0,0,1,0,7h-7A3.5,3.5,0,0,1,559.5,362Z"/>
    <path class="cls-22" d="M514,340h38v7H514v-7Zm0,22h38v7H514v-7Zm0-11h38v7H514v-7Z"/>
    <circle class="cls-2" cx="565" cy="385" r="5"/>
    <rect class="cls-23" x="524" y="305" width="36" height="23"/>
    <rect class="cls-24" x="514" y="290" width="38" height="9"/>
  </g>
  <path class="cls-25" d="M485,362a8,8,0,0,1-7.748-6H155V327.748a8,8,0,1,1,4,0V352H477.252A8,8,0,1,1,485,362Z"/>
  <path class="cls-25" d="M627,216.738V301H601.738a8,8,0,1,1,0-4H623V216.738A8,8,0,1,1,627,216.738Z"/>
  <text id="WiFi" class="cls-26" x="309" y="346">WiFi</text>
  <text id="IR_Blaster" data-name="IR Blaster" class="cls-26" x="637.786" y="264.267">IR Blaster</text>
</svg>
